<svg aria-hidden="true" style="position: absolute; width: 0; height: 0; overflow: hidden;" version="1.1" xmlns="http://www.w3.org/2000/svg" xmlns:xlink="http://www.w3.org/1999/xlink">
<defs>
<symbol id="icon-site" viewBox="0 0 302 32" >
  <path d="M11.383 18.926l-11.383-18.926h6.811l7.634 13.12h0.091l7.634-13.12h6.811l-11.383 18.926v13.074h-6.217v-13.074z" />
  <path d="M28.961 26.743v-21.486l5.257-5.257h16.457l5.257 5.257v21.486l-5.257 5.257h-16.457l-5.257-5.257zM47.384 26.697l2.331-2.331v-16.731l-2.331-2.331h-9.874l-2.331 2.331v16.731l2.331 2.331h9.874z" />
  <path d="M60.284 26.514v-26.514h6.217v24.366l2.331 2.331h8.96l2.331-2.331v-24.366h6.217v26.514l-5.486 5.486h-15.086l-5.486-5.486z" />
  <path d="M116.293 21.394v10.606h-6.217v-9.189l-2.743-3.063h-9.966v12.251h-6.217v-32h20.069l4.891 4.937v9.691l-3.109 3.154 3.291 3.611zM97.367 14.629h11.017l1.6-1.6v-6.217l-1.6-1.6h-11.017v9.417z" />
  <path d="M132.168 0h23.131v5.257h-16.914v8.091h15.589v5.166h-15.589v8.229h16.914v5.257h-23.131v-32z" />
  <path d="M158.748 0h5.577l14.263 21.714h0.091v-21.714h5.989v32h-5.577l-14.263-21.669h-0.091v21.669h-5.989v-32z" />
  <path d="M189.48 0h23.131v5.257h-16.914v8.091h15.589v5.166h-15.589v8.229h16.914v5.257h-23.131v-32z" />
  <path d="M241.205 21.394v10.606h-6.217v-9.189l-2.743-3.063h-9.967v12.251h-6.217v-32h20.070l4.891 4.937v9.691l-3.109 3.154 3.291 3.611zM222.278 14.629h11.018l1.6-1.6v-6.217l-1.6-1.6h-11.018v9.417z" />
  <path d="M245.31 26.743v-21.486l5.257-5.257h15.909l5.166 5.166v4.891h-6.217v-2.606l-2.149-2.149h-9.417l-2.331 2.331v16.731l2.331 2.331h9.509l2.24-2.24v-4.983h-6.857v-5.303h12.891v12.571l-5.257 5.257h-15.817l-5.257-5.257z" />
  <path d="M283.035 18.926l-11.383-18.926h6.811l7.634 13.12h0.091l7.634-13.12h6.811l-11.383 18.926v13.074h-6.217v-13.074z" />
</symbol>

<symbol id="icon-sun" viewBox="0 0 32 32" fill="#242424">
  <path d="M14.316 13.621l0.365 0.376-4.485-12.907 5.344 12.573 0.018-0.524 0.443-13.138 0.461 13.663 5.344-12.573-4.485 12.907 9.506-9.785-8.825 10.409 12.384-5.676-11.973 6.504 13.589-0.8-13.504 1.721 12.959 4.184-13.211-3.294 10.579 8.603-11.134-7.864 6.77 11.86-7.554-11.373 2.047 13.515-2.953-13.345-2.953 13.345 2.047-13.515-7.553 11.373 6.77-11.86-11.134 7.864 10.579-8.603-13.211 3.294 12.959-4.184-13.504-1.721 13.589 0.8-11.973-6.504 12.384 5.676-8.825-10.409 9.141 9.41zM15.25 14.192l-0.649 0.404-0.46 0.612-0.209 0.737 0.070 0.763 0.34 0.686 0.564 0.517 0.712 0.277h0.763l0.712-0.277 0.564-0.517 0.34-0.686 0.070-0.763-0.209-0.737-0.46-0.612-0.649-0.404-0.75-0.141-0.75 0.141z" />
</symbol>
<symbol id="icon-youtube" viewBox="0 0 32 32">
<path d="M24.24 6c-1.36-0.080-4.16-0.16-8.4-0.16h-0.56c-4.080 0-6.8 0.080-8.16 0.24-1.84 0.16-3.12 0.64-3.84 1.28-0.64 0.56-1.12 1.6-1.28 2.96-0.080 0.88-0.16 2.72-0.16 5.52v0.4c0 2.64 0.080 4.48 0.24 5.36 0.24 1.28 0.64 2.24 1.44 2.8 0.8 0.64 2.16 1.040 4.080 1.2 1.36 0.080 4.16 0.16 8.4 0.16h0.56c4.080 0 6.8-0.080 8.16-0.24 1.84-0.16 3.12-0.64 3.84-1.28 0.64-0.56 1.12-1.6 1.28-2.96 0.080-0.88 0.16-2.72 0.16-5.52v-0.4c0-2.64-0.080-4.48-0.24-5.36-0.24-1.28-0.64-2.24-1.44-2.8-0.8-0.64-2.16-1.040-4.080-1.2zM21.12 15.84l-8.8 5.28v-10.56l8.8 5.28z"></path>
</symbol>
<symbol id="icon-instagram" viewBox="0 0 32 32">
<path d="M28.717 10.756c-0.016-1.074-0.215-2.14-0.596-3.145-0.667-1.716-2.024-3.073-3.743-3.737-0.994-0.373-2.044-0.573-3.108-0.596-1.368-0.061-1.801-0.078-5.273-0.078s-3.917 0-5.274 0.078c-1.062 0.023-2.112 0.223-3.106 0.596-1.719 0.664-3.078 2.021-3.743 3.737-0.374 0.992-0.576 2.041-0.596 3.101-0.061 1.367-0.080 1.8-0.080 5.265s0 3.909 0.080 5.265c0.021 1.062 0.222 2.109 0.596 3.104 0.667 1.714 2.024 3.071 3.744 3.735 0.989 0.386 2.040 0.605 3.106 0.639 1.369 0.061 1.803 0.080 5.274 0.080s3.916 0 5.274-0.080c1.062-0.021 2.113-0.221 3.108-0.595 1.719-0.666 3.076-2.022 3.743-3.737 0.374-0.994 0.574-2.041 0.596-3.104 0.061-1.365 0.080-1.798 0.080-5.265-0.003-3.466-0.003-3.906-0.082-5.264zM15.99 22.531c-3.631 0-6.572-2.936-6.572-6.561s2.941-6.561 6.572-6.561c3.628 0 6.572 2.936 6.572 6.561s-2.944 6.561-6.572 6.561zM22.823 10.696c-0.849 0-1.532-0.684-1.532-1.53s0.684-1.53 1.532-1.53c0.846 0 1.531 0.684 1.531 1.53s-0.685 1.53-1.531 1.53z"></path>
<path d="M15.992 19.976c2.211 0 4.004-1.793 4.004-4.004s-1.793-4.004-4.004-4.004c-2.211 0-4.004 1.793-4.004 4.004s1.793 4.004 4.004 4.004z"></path>
</symbol>
<symbol id="icon-facebook" viewBox="0 0 32 32">
<path d="M19.52 4.64c0.24 0 0.48 0 0.96 0v3.6c-0.24 0-0.72 0-1.2 0s-0.96 0-1.2 0.24c-0.24 0.24-0.24 0.48-0.24 1.040 0 0.48 0 0.8 0 1.28h2.64v3.040h-2.64v13.2h-4.080v-13.28h-2.16v-3.040h2.16v-1.040c0-1.76 0.24-3.040 0.72-3.6 0.72-1.040 2.16-1.52 4.32-1.52 0.24 0.080 0.48 0.080 0.72 0.080z"></path>
</symbol>
<symbol id="icon-star" viewBox="0 0 32 32">
<path  d="M13.618 1.701c0.737-2.268 3.945-2.268 4.682 0l2.080 6.402c0.33 1.014 1.275 1.701 2.341 1.701h6.731c2.384 0 3.376 3.051 1.447 4.453l-5.446 3.957c-0.863 0.627-1.224 1.738-0.894 2.752l2.080 6.402c0.737 2.268-1.859 4.154-3.788 2.752l-5.446-3.957c-0.863-0.627-2.031-0.627-2.894 0l-5.446 3.957c-1.929 1.402-4.525-0.484-3.788-2.752l2.080-6.402c0.33-1.014-0.031-2.125-0.894-2.752l-5.446-3.957c-1.929-1.402-0.938-4.453 1.447-4.453h6.731c1.066 0 2.012-0.687 2.341-1.701l2.080-6.402z"></path>
</symbol>
<symbol id="icon-one_arrow" viewBox="0 0 32 32">
<path d="M17.867 16.947c0.125-0.124 0.224-0.271 0.292-0.434s0.103-0.337 0.103-0.513-0.035-0.35-0.103-0.513c-0.068-0.162-0.167-0.31-0.292-0.434l-6.12-6.107c-0.125-0.124-0.224-0.271-0.292-0.434s-0.103-0.337-0.103-0.513c0-0.176 0.035-0.35 0.103-0.513s0.167-0.31 0.292-0.434c0.25-0.248 0.588-0.388 0.94-0.388s0.69 0.139 0.94 0.388l6.12 6.12c0.749 0.75 1.17 1.767 1.17 2.827s-0.421 2.077-1.17 2.827l-6.12 6.12c-0.248 0.246-0.584 0.385-0.933 0.387-0.175 0.001-0.349-0.033-0.512-0.099s-0.31-0.164-0.435-0.288c-0.125-0.124-0.224-0.271-0.292-0.434s-0.103-0.337-0.103-0.513 0.035-0.35 0.103-0.513c0.068-0.162 0.167-0.31 0.292-0.434l6.12-6.107z"></path>
</symbol>
<symbol id="icon-cancel" viewBox="0 0 32 32">
<path stroke-linejoin="round" stroke-linecap="round" stroke-miterlimit="4" stroke-width="5.3333" d="M29.333 2.667l-26.667 26.667M2.667 2.667l26.667 26.667"></path>
</symbol>
<symbol id="icon-trash" viewBox="0 0 32 32">
<path stroke-linejoin="round" stroke-linecap="round" stroke-miterlimit="4" stroke-width="2.5263" d="M21.193 6.877v-1.123c0-1.572 0-2.358-0.306-2.959-0.269-0.528-0.699-0.958-1.227-1.227-0.6-0.306-1.386-0.306-2.959-0.306h-2.246c-1.572 0-2.358 0-2.959 0.306-0.528 0.269-0.958 0.699-1.227 1.227-0.306 0.6-0.306 1.386-0.306 2.959v1.123M12.772 14.597v7.017M18.386 14.597v7.017M2.947 6.877h25.263M25.403 6.877v15.719c0 2.358 0 3.537-0.459 4.438-0.404 0.792-1.048 1.436-1.84 1.84-0.901 0.459-2.080 0.459-4.438 0.459h-6.175c-2.358 0-3.537 0-4.438-0.459-0.792-0.404-1.436-1.048-1.84-1.84-0.459-0.901-0.459-2.080-0.459-4.438v-15.719"></path>
</symbol>
<symbol id="icon-heart" viewBox="0 0 32 32">
<path stroke-linejoin="round" stroke-linecap="round" stroke-miterlimit="4" stroke-width="2.5263" d="M28.339 5.21c-0.717-0.717-1.568-1.286-2.505-1.674s-1.941-0.588-2.955-0.588c-1.014 0-2.018 0.2-2.955 0.588s-1.788 0.957-2.505 1.674l-1.488 1.488-1.488-1.488c-1.448-1.448-3.412-2.261-5.46-2.261s-4.012 0.813-5.46 2.261c-1.448 1.448-2.261 3.412-2.261 5.46s0.813 4.012 2.261 5.46l12.407 12.407 12.407-12.407c0.717-0.717 1.286-1.568 1.674-2.505s0.588-1.941 0.588-2.955-0.2-2.018-0.588-2.955c-0.388-0.937-0.957-1.788-1.674-2.505z"></path>
</symbol>
<symbol id="icon-heart1" viewBox="0 0 36 32">
<path stroke-linejoin="round" stroke-linecap="round" stroke-miterlimit="4" stroke-width="3" d="M30.437 3.918c-0.766-0.766-1.676-1.375-2.677-1.789s-2.074-0.628-3.158-0.628c-1.084 0-2.157 0.214-3.158 0.628s-1.911 1.023-2.677 1.789l-1.59 1.59-1.59-1.59c-1.548-1.548-3.646-2.417-5.835-2.417s-4.287 0.869-5.835 2.417c-1.548 1.548-2.417 3.646-2.417 5.835s0.869 4.287 2.417 5.835l13.26 13.26 13.26-13.26c0.766-0.766 1.374-1.676 1.789-2.677s0.628-2.074 0.628-3.158-0.213-2.157-0.628-3.158c-0.415-1.001-1.023-1.911-1.789-2.677z"></path>
</symbol>
<symbol id="icon-search" viewBox="0 0 32 32">
<path stroke-linejoin="round" stroke-linecap="round" stroke-miterlimit="4" stroke-width="2.6667" d="M14.667 25.333c5.891 0 10.667-4.776 10.667-10.667s-4.776-10.667-10.667-10.667c-5.891 0-10.667 4.776-10.667 10.667s4.776 10.667 10.667 10.667z"></path>
<path stroke-linejoin="round" stroke-linecap="round" stroke-miterlimit="4" stroke-width="2.6667" d="M28 28l-5.8-5.8"></path>
</symbol>
<symbol id="icon-two_arrow" viewBox="0 0 32 32">
<path d="M10.15 16.611c-0.081-0.080-0.145-0.175-0.188-0.28s-0.066-0.217-0.066-0.331 0.022-0.226 0.066-0.331c0.044-0.105 0.108-0.2 0.188-0.28l3.948-3.94c0.081-0.080 0.145-0.175 0.188-0.28s0.066-0.217 0.066-0.331c0-0.114-0.023-0.226-0.066-0.331s-0.108-0.2-0.188-0.28c-0.161-0.16-0.379-0.25-0.606-0.25s-0.445 0.090-0.606 0.25l-3.948 3.948c-0.483 0.484-0.755 1.14-0.755 1.824s0.271 1.34 0.755 1.824l3.948 3.948c0.16 0.159 0.376 0.248 0.602 0.25 0.113 0.001 0.225-0.021 0.33-0.064s0.2-0.106 0.281-0.186c0.081-0.080 0.145-0.175 0.188-0.28s0.066-0.217 0.066-0.331-0.023-0.226-0.066-0.331c-0.044-0.105-0.108-0.2-0.188-0.28l-3.948-3.94z"></path>
<path d="M17.376 16.611c-0.081-0.080-0.145-0.175-0.188-0.28s-0.066-0.217-0.066-0.331 0.023-0.226 0.066-0.331c0.044-0.105 0.108-0.2 0.188-0.28l3.948-3.94c0.081-0.080 0.145-0.175 0.188-0.28s0.066-0.217 0.066-0.331c0-0.114-0.023-0.226-0.066-0.331s-0.108-0.2-0.188-0.28c-0.161-0.16-0.379-0.25-0.606-0.25s-0.445 0.090-0.606 0.25l-3.948 3.948c-0.483 0.484-0.755 1.14-0.755 1.824s0.271 1.34 0.755 1.824l3.948 3.948c0.16 0.159 0.376 0.248 0.602 0.25 0.113 0.001 0.225-0.021 0.33-0.064s0.2-0.106 0.281-0.186c0.081-0.080 0.145-0.175 0.188-0.28s0.066-0.217 0.066-0.331-0.023-0.226-0.066-0.331c-0.044-0.105-0.108-0.2-0.188-0.28l-3.948-3.94z"></path>
</symbol>
<symbol id="icon-run" viewBox="0 0 32 32">
<path d="M29.317 9.938c-0.419-0.501-1.166-0.567-1.667-0.149l-3.282 2.757-1.509-3.739c-0.054-0.14-0.135-0.258-0.229-0.362-0.308-0.686-0.844-1.275-1.582-1.617-0.321-0.146-0.652-0.224-0.983-0.262-0.073-0.038-0.139-0.088-0.222-0.114l-5.776-1.61c-0.324-0.088-0.65-0.031-0.917 0.125-0.317 0.107-0.589 0.338-0.719 0.672l-2.175 5.592c-0.236 0.608 0.066 1.294 0.676 1.534 0.606 0.236 1.294-0.068 1.532-0.678l1.837-4.722 2.63 0.731c-0.064 0.104-0.133 0.201-0.185 0.312l-3.372 7.309c-0.049 0.107-0.075 0.217-0.109 0.327l-4.098 6.871-6.859 2.294c-0.776 0.58-0.941 1.674-0.367 2.45 0.577 0.778 1.674 0.943 2.448 0.369l7.018-2.417c0.215-0.156 0.371-0.36 0.489-0.58 0.088-0.094 0.189-0.168 0.256-0.284l2.443-4.096 4.337 3.696-4.64 5.23c-0.639 0.721-0.575 1.832 0.149 2.469 0.723 0.643 1.83 0.575 2.473-0.149l5.791-6.524c0.18-0.201 0.288-0.433 0.36-0.676 0.043-0.132 0.043-0.269 0.054-0.405 0-0.069 0.026-0.132 0.021-0.196-0.016-0.478-0.21-0.943-0.601-1.274l-3.991-3.403c0.288-0.274 0.532-0.6 0.709-0.982l2.585-5.599 0.828 2.206c0.035 0.196 0.1 0.388 0.239 0.549 0.125 0.149 0.284 0.248 0.454 0.317 0.017 0.009 0.038 0.010 0.059 0.016 0.107 0.038 0.217 0.075 0.329 0.080 0.133 0.012 0.268-0.005 0.405-0.043 0.004-0.002 0.005-0.002 0.005-0.002 0.036-0.009 0.073-0.002 0.109-0.017 0.192-0.073 0.34-0.196 0.466-0.34l4.71-3.998c0.501-0.421 0.289-1.166-0.132-1.667z"></path>
<path d="M22.090 6.602c1.823 0 3.301-1.478 3.301-3.301s-1.478-3.301-3.301-3.301c-1.823 0-3.301 1.478-3.301 3.301s1.478 3.301 3.301 3.301z"></path>
</symbol>
<symbol id="icon-commas" viewBox="0 0 32 32">
<path fill="#f4f4f4" style="fill: var(--color2, #f4f4f4)" d="M6.316 16.508c1.953-0.774 3.518-0.571 4.697 0.608s1.529 3.058 1.050 5.637c-0.368 1.916-1.179 3.389-2.432 4.421-1.216 0.995-2.634 1.492-4.255 1.492-2.211 0-3.739-0.847-4.587-2.542-0.847-1.732-1.013-4.053-0.497-6.963 0.295-1.584 0.774-3.187 1.437-4.808s1.547-3.279 2.653-4.974c1.105-1.695 2.542-3.168 4.311-4.421s3.721-2.063 5.858-2.432l-0.553 5.858c-1.805 0.368-3.408 1.308-4.808 2.818-1.4 1.474-2.358 3.242-2.874 5.305zM22.951 16.508c1.953-0.774 3.518-0.571 4.697 0.608s1.529 3.058 1.050 5.637c-0.368 1.916-1.179 3.389-2.431 4.421-1.216 0.995-2.634 1.492-4.255 1.492-2.211 0-3.739-0.847-4.587-2.542-0.847-1.732-1.013-4.053-0.497-6.963 0.295-1.584 0.774-3.187 1.437-4.808s1.547-3.279 2.653-4.974c1.105-1.695 2.542-3.168 4.311-4.421s3.721-2.063 5.858-2.432l-0.553 5.858c-1.805 0.368-3.408 1.308-4.808 2.818-1.4 1.474-2.358 3.242-2.874 5.305z"></path>
</symbol>
<symbol id="icon-arrow-right" viewBox="0 0 32 32">
<path stroke-linejoin="round" stroke-linecap="round" stroke-miterlimit="4" stroke-width="2.7733" d="M15.253 29.12l13.867-13.867M29.12 15.253l-13.867-13.867M29.12 15.253h-27.733"></path>
</symbol>
<symbol id="icon-train" viewBox="0 0 32 32">
<path fill="#f4f4f4" style="fill: var(--color2, #f4f4f4)" d="M5.2 7.429h-2.4c-0.665 0-1.2 0.573-1.2 1.286v5.571h-1.2c-0.22 0-0.4 0.193-0.4 0.429v2.571c0 0.236 0.18 0.429 0.4 0.429h1.2v5.571c0 0.712 0.535 1.286 1.2 1.286h2.4c0.665 0 1.2-0.573 1.2-1.286v-14.571c0-0.713-0.535-1.286-1.2-1.286zM31.6 14.286h-1.2v-5.571c0-0.713-0.535-1.286-1.2-1.286h-2.4c-0.665 0-1.2 0.573-1.2 1.286v14.571c0 0.712 0.535 1.286 1.2 1.286h2.4c0.665 0 1.2-0.573 1.2-1.286v-5.571h1.2c0.22 0 0.4-0.193 0.4-0.429v-2.571c0-0.236-0.18-0.429-0.4-0.429zM22.8 4h-2.4c-0.665 0-1.2 0.573-1.2 1.286v9h-6.4v-9c0-0.713-0.535-1.286-1.2-1.286h-2.4c-0.665 0-1.2 0.573-1.2 1.286v21.428c0 0.713 0.535 1.286 1.2 1.286h2.4c0.665 0 1.2-0.573 1.2-1.286v-9h6.4v9c0 0.713 0.535 1.286 1.2 1.286h2.4c0.665 0 1.2-0.573 1.2-1.286v-21.428c0-0.713-0.535-1.286-1.2-1.286z"></path>
</symbol>
</defs>
</svg>

